<?xml version="1.0" standalone="no"?>
<!DOCTYPE svg PUBLIC "-//W3C//DTD SVG 20010904//EN"
 "http://www.w3.org/TR/2001/REC-SVG-20010904/DTD/svg10.dtd">
<svg version="1.0" xmlns="http://www.w3.org/2000/svg"
 width="1024.000000pt" height="1024.000000pt" viewBox="0 0 1024.000000 1024.000000"
 preserveAspectRatio="xMidYMid meet">

<g transform="translate(0.000000,1024.000000) scale(0.100000,-0.100000)"
fill="#000000" stroke="none">
<path d="M3660 8165 c-480 -68 -912 -385 -1071 -786 -43 -109 -47 -170 -50
-659 l-2 -465 28 -84 c16 -45 46 -111 68 -145 47 -72 159 -190 239 -253 l58
-44 -84 -82 c-93 -92 -169 -199 -227 -320 -70 -148 -70 -147 -74 -687 l-4
-485 26 -78 c34 -107 102 -203 225 -322 194 -189 411 -331 593 -390 181 -58
251 -70 435 -70 159 0 171 1 318 39 227 57 376 135 602 315 180 143 335 273
357 298 l21 26 54 -45 c65 -55 247 -193 342 -259 39 -27 110 -77 158 -111 163
-118 214 -146 364 -199 156 -54 215 -64 399 -64 152 0 184 3 295 29 150 34
257 72 367 131 311 165 520 371 584 575 18 59 20 88 17 310 -1 135 -3 373 -3
530 -1 327 -1 328 -91 497 -72 134 -149 230 -253 315 l-44 35 71 52 c80 59
211 194 249 259 14 23 37 75 51 115 l25 72 -2 485 c-3 561 -2 558 -91 737 -68
138 -165 270 -271 366 -262 239 -555 357 -890 357 -190 0 -363 -37 -566 -121
-88 -37 -307 -181 -416 -274 -64 -54 -146 -118 -267 -209 l-38 -29 -169 113
c-521 350 -561 375 -673 425 -232 104 -424 133 -660 100z m379 -200 c158 -30
282 -98 646 -351 99 -69 209 -140 245 -159 68 -34 116 -75 88 -75 -31 0 -369
-288 -533 -454 -182 -184 -336 -317 -485 -420 -41 -28 -133 -100 -205 -160
-71 -60 -153 -124 -182 -144 l-52 -34 -37 23 c-21 13 -94 62 -163 109 -70 48
-171 118 -226 155 -123 85 -198 158 -264 259 -58 89 -87 161 -107 264 -18 94
-18 151 1 248 33 175 78 258 214 397 116 120 250 212 390 268 236 94 442 117
670 74z m2546 5 c109 -13 173 -31 290 -82 196 -86 351 -202 456 -340 142 -189
192 -370 158 -577 -32 -203 -125 -331 -364 -504 -111 -80 -159 -118 -332 -260
-35 -28 -65 -59 -68 -68 -5 -16 -12 -14 -53 17 -71 52 -149 103 -222 142 -36
19 -118 69 -184 110 -133 83 -220 125 -245 117 -18 -6 -51 -78 -54 -120 -3
-39 71 -97 244 -195 73 -41 150 -88 172 -104 l40 -28 -73 -66 c-92 -83 -217
-173 -295 -212 -33 -17 -55 -30 -50 -30 6 0 6 -3 0 -8 -6 -4 -22 -23 -35 -42
-13 -19 -28 -38 -33 -41 -5 -4 -8 -21 -5 -38 2 -17 1 -31 -4 -31 -13 0 21 -60
38 -67 7 -3 14 -9 14 -14 0 -5 -19 3 -42 17 -23 15 -67 38 -98 51 -115 52
-563 342 -601 390 -12 16 -12 17 1 8 9 -5 6 -1 -7 10 -27 25 -33 95 -8 95 18
0 19 4 3 30 -11 16 -9 22 7 34 20 14 19 15 -5 24 -14 6 -32 18 -40 28 -14 16
-13 16 20 -1 19 -10 125 -75 235 -145 274 -174 434 -259 490 -262 44 -1 95 22
95 43 0 25 -222 205 -355 289 -79 51 -539 356 -776 517 -47 32 -120 79 -162
105 -43 26 -77 52 -77 58 0 15 115 130 221 221 47 41 126 110 175 154 49 44
107 94 129 110 22 16 101 82 175 145 74 64 162 136 195 162 33 26 74 58 90 71
124 99 312 200 455 244 169 51 304 63 485 43z m-3739 -1529 c103 -94 185 -156
339 -255 82 -52 154 -97 160 -99 16 -6 -13 -34 -110 -107 -49 -37 -101 -79
-114 -93 l-24 -26 -76 52 c-42 29 -114 90 -161 137 -110 109 -143 173 -146
280 -2 41 0 65 2 53 3 -13 10 -23 15 -23 5 0 9 -9 9 -19 0 -16 6 -19 30 -16
28 4 43 -9 19 -17 -7 -2 -7 -12 0 -30 7 -20 15 -25 30 -21 12 3 21 1 21 -6 0
-6 8 -11 18 -11 14 0 15 -2 2 -10 -12 -8 -12 -10 5 -11 11 0 14 -3 8 -6 -17
-6 9 -33 31 -33 8 0 22 -10 30 -22 11 -15 16 -18 16 -8 0 13 2 13 10 0 5 -8
10 -11 10 -6 0 6 7 1 15 -10 13 -16 16 -17 25 -4 9 13 11 13 20 0 15 -23 12
-38 -9 -50 -16 -8 -22 -6 -30 7 -6 10 -11 13 -11 7 0 -17 21 -31 58 -39 25 -5
32 -12 32 -30 0 -12 7 -28 15 -35 10 -9 15 -9 15 -1 0 6 5 11 11 11 6 0 8 -8
5 -18 -5 -15 1 -18 37 -19 23 0 44 2 47 6 3 4 20 17 38 30 26 18 31 26 20 33
-9 6 -6 7 9 3 12 -3 24 -1 28 5 3 5 2 10 -4 10 -6 0 -8 7 -5 15 4 8 10 15 16
15 5 0 6 -4 3 -10 -3 -5 -1 -10 4 -10 13 0 14 10 2 29 -5 7 -14 10 -20 7 -6
-4 -11 0 -11 8 0 9 -7 16 -15 16 -8 0 -15 5 -15 11 0 7 -11 9 -29 6 -21 -4
-34 -1 -46 13 -10 11 -14 20 -9 20 5 0 -13 11 -41 25 -27 14 -39 22 -26 19 16
-4 21 -3 17 5 -4 6 -12 11 -17 11 -6 0 -25 11 -43 25 -18 14 -38 25 -44 25 -7
0 -12 5 -12 10 0 6 -9 10 -20 10 -13 0 -17 5 -14 14 6 15 -29 40 -40 29 -3 -3
-6 1 -6 11 0 9 -9 20 -19 24 -18 7 -137 129 -154 158 -13 23 -35 16 -40 -13
-2 -16 -5 -2 -6 31 l-1 58 43 -58 c24 -33 70 -83 103 -113z m4698 44 c-1 -64
-4 -119 -8 -122 -3 -4 -6 17 -6 45 0 31 -6 56 -15 65 -8 8 -11 17 -8 21 4 3 0
6 -7 6 -8 0 -30 -15 -49 -32 -24 -22 -20 -16 11 18 25 28 53 65 62 82 9 18 18
32 19 32 1 0 1 -52 1 -115z m-3104 88 c0 -3 -6 -3 -14 0 -7 3 -20 0 -27 -6
-11 -10 -11 -9 0 5 11 15 41 15 41 1z m645 -276 c24 -17 44 -35 45 -38 0 -3
-17 -5 -37 -5 -32 1 -38 -2 -41 -22 -4 -28 17 -59 28 -42 4 7 8 -18 9 -55 1
-51 -2 -65 -11 -59 -7 4 -38 24 -68 44 -30 20 -76 48 -102 63 -61 35 -109 77
-102 88 3 5 -2 9 -10 9 -9 0 -16 5 -16 10 0 6 -5 10 -10 10 -17 0 -130 81
-130 93 0 8 4 7 9 -2 6 -10 20 -12 47 -7 22 4 55 9 76 12 28 5 37 11 41 30 2
13 0 21 -4 18 -5 -3 -9 0 -9 5 0 6 -19 30 -42 52 -33 32 -6 18 120 -65 90 -58
183 -121 207 -139z m-780 183 c-16 -16 -25 -30 -20 -30 5 0 4 -5 -2 -11 -7 -7
-8 -24 -1 -52 5 -23 8 -53 6 -67 -1 -14 1 -30 5 -37 13 -20 -268 -261 -368
-315 -18 -10 -19 -10 -6 5 12 15 11 17 -3 17 -9 0 -26 16 -38 35 -13 18 -33
39 -46 45 -13 5 -20 15 -17 20 3 6 -1 10 -9 10 -8 0 -29 -17 -46 -37 -18 -21
-27 -29 -21 -18 28 52 148 153 272 230 100 61 133 85 243 177 76 64 95 74 51
28z m3060 -88 c-27 -26 -59 -53 -70 -61 -11 -8 9 14 45 47 36 34 67 61 70 61
3 1 -17 -21 -45 -47z m175 -86 c0 -40 -34 -126 -71 -181 -44 -64 -207 -215
-292 -270 -28 -18 -28 -18 -57 10 -16 15 -26 33 -23 39 3 6 3 8 -2 4 -4 -4
-34 13 -66 38 -32 25 -72 50 -89 55 -19 7 -30 18 -30 29 0 23 54 79 78 79 9 1
34 4 54 7 36 6 37 5 48 -35 6 -23 13 -41 16 -41 3 0 2 10 -2 22 -6 20 -5 21 9
9 9 -7 14 -17 11 -22 -3 -5 0 -9 5 -9 6 0 11 5 11 10 0 6 5 10 10 10 6 0 10
-6 10 -14 0 -39 69 -23 89 20 14 32 14 37 -1 29 -7 -4 -2 2 12 13 13 11 28 18
32 15 5 -2 7 1 6 8 -2 6 2 13 9 16 6 2 13 -6 16 -19 4 -20 4 -20 6 5 1 21 -4
27 -18 27 -25 0 -36 16 -16 24 8 3 15 2 15 -3 0 -4 6 -8 14 -8 8 0 12 6 9 14
-3 8 2 13 12 13 11 0 15 -5 12 -15 -4 -8 -2 -17 3 -20 6 -4 10 -1 10 5 0 6 4
9 9 6 5 -4 7 7 5 24 -4 25 -2 30 15 30 12 0 21 6 21 13 0 8 22 19 50 27 45 12
50 16 50 42 0 15 5 28 10 28 6 0 10 -15 10 -34z m-130 -46 c0 -5 -12 -10 -26
-10 -14 0 -23 4 -19 10 3 6 15 10 26 10 10 0 19 -4 19 -10z m-230 -15 c0 -5
-94 -75 -120 -90 -25 -14 -6 3 56 50 62 46 64 48 64 40z m168 -26 c-20 -13
-28 -11 -22 5 3 8 12 12 21 9 12 -5 12 -7 1 -14z m-4358 -39 c-8 -5 -22 -9
-30 -9 -10 0 -8 3 5 9 27 12 43 12 25 0z m1685 -57 c39 -25 117 -80 175 -122
58 -42 143 -99 189 -126 46 -28 131 -86 190 -130 58 -44 129 -93 156 -109 118
-68 313 -193 353 -227 11 -9 4 -17 -35 -40 -26 -15 -122 -98 -213 -183 -463
-437 -669 -620 -932 -830 -265 -212 -427 -276 -700 -276 -266 0 -487 70 -709
226 -352 247 -498 718 -323 1041 72 132 312 360 552 525 70 48 132 95 139 104
11 15 19 11 72 -38 44 -41 97 -74 202 -126 168 -83 142 -86 296 43 120 100
204 166 223 174 12 5 108 66 215 137 29 19 71 7 150 -43z m537 22 c-6 -34 -12
-32 -12 6 0 16 4 28 9 25 4 -3 6 -17 3 -31z m-2203 3 c-5 -10 -11 -18 -12 -18
-2 0 -3 8 -4 18 -1 10 5 19 12 19 10 0 11 -5 4 -19z m41 -10 c0 -19 -2 -20
-10 -8 -13 19 -13 30 0 30 6 0 10 -10 10 -22z m17 -15 c-3 -10 -5 -4 -5 12 0
17 2 24 5 18 2 -7 2 -21 0 -30z m4211 28 c10 -6 10 -10 -3 -21 -18 -15 -42 0
-31 19 8 13 16 14 34 2z m-233 -11 c4 -6 3 -9 -2 -8 -4 1 -19 -4 -33 -11 l-25
-12 25 20 c30 24 27 24 35 11z m188 -37 c-3 -7 -9 -13 -13 -13 -4 0 -10 6 -13
13 -3 7 3 13 13 13 10 0 16 -6 13 -13z m-418 -259 c216 -134 435 -302 513
-394 115 -136 162 -265 162 -441 0 -201 -36 -320 -145 -474 -136 -193 -381
-354 -639 -421 -175 -46 -415 -32 -608 35 -102 35 -356 197 -548 350 -52 42
-117 91 -145 110 -93 64 -145 105 -145 116 1 5 35 37 77 70 42 33 133 114 203
180 176 168 269 249 385 334 110 81 145 116 145 147 0 28 -32 56 -56 48 -10
-4 10 13 45 36 36 24 84 58 108 76 24 18 75 50 114 70 40 21 95 59 123 84 28
26 71 60 96 77 25 17 63 47 84 67 29 26 46 34 60 30 12 -4 89 -48 171 -100z
m-1762 -1549 l-5 -130 -67 -64 c-69 -66 -463 -385 -541 -438 -98 -66 -271
-132 -400 -153 -99 -15 -316 -12 -411 6 -109 20 -287 78 -369 119 -136 69
-368 255 -447 360 -25 33 -61 91 -79 130 l-34 69 0 166 0 165 29 -51 c16 -28
52 -76 80 -106 32 -35 49 -62 45 -71 -3 -8 0 -18 7 -23 9 -5 10 -2 6 10 -9 23
3 15 84 -54 148 -127 285 -209 434 -259 193 -65 233 -73 390 -78 143 -5 200 0
352 32 22 5 32 3 36 -6 2 -8 3 -7 2 2 -2 12 14 21 54 34 138 43 348 167 466
275 33 31 116 103 185 162 69 58 136 118 150 133 l25 27 7 -64 c4 -34 4 -121
1 -193z m259 142 c51 -41 92 -79 91 -84 -1 -6 5 -17 15 -25 15 -12 16 -11 3 5
-7 9 -9 17 -3 17 12 0 34 -25 27 -32 -3 -3 5 -13 17 -24 l23 -19 -19 23 c-27
32 -14 27 44 -14 55 -40 61 -48 28 -39 -20 5 -21 4 -5 -5 9 -6 22 -8 28 -5 5
4 51 -24 102 -62 160 -120 286 -184 480 -244 93 -29 117 -32 267 -36 150 -5
175 -3 275 20 203 46 399 132 536 234 126 94 270 245 313 327 13 27 15 18 15
-120 2 -225 -25 -305 -141 -430 -188 -201 -503 -370 -760 -408 -249 -37 -454
-9 -689 97 -70 31 -305 184 -362 235 -54 49 -204 166 -287 225 -111 77 -105
63 -105 263 0 96 3 174 7 174 4 0 49 -33 100 -73z"/>
<path d="M5220 6070 c0 -5 5 -10 10 -10 6 0 10 5 10 10 0 6 -4 10 -10 10 -5 0
-10 -4 -10 -10z"/>
<path d="M5900 5590 c0 -5 5 -10 11 -10 5 0 7 5 4 10 -3 6 -8 10 -11 10 -2 0
-4 -4 -4 -10z"/>
<path d="M2896 6153 c-4 -9 -3 -20 1 -24 4 -4 9 3 9 17 2 28 -1 31 -10 7z"/>
<path d="M2960 6121 c0 -6 -5 -10 -11 -8 -6 1 -14 -5 -16 -13 -4 -12 -3 -12 5
-2 5 8 12 13 16 12 4 -1 12 0 18 2 9 3 9 6 0 12 -7 4 -12 2 -12 -3z"/>
<path d="M7450 6250 c-8 -5 -10 -10 -5 -10 6 0 17 5 25 10 8 5 11 10 5 10 -5
0 -17 -5 -25 -10z"/>
<path d="M7270 6079 c-7 -11 -9 -23 -6 -27 3 -3 6 0 6 6 0 6 7 18 16 26 8 9
11 16 5 16 -6 0 -15 -9 -21 -21z"/>
<path d="M7050 6070 c0 -5 5 -10 10 -10 6 0 10 5 10 10 0 6 -4 10 -10 10 -5 0
-10 -4 -10 -10z"/>
<path d="M7250 6140 c0 -5 5 -10 10 -10 6 0 10 5 10 10 0 6 -4 10 -10 10 -5 0
-10 -4 -10 -10z"/>
<path d="M4838 4308 c12 -6 22 -15 22 -20 0 -4 5 -8 10 -8 6 0 10 6 10 14 0
15 -22 26 -48 25 -13 0 -11 -3 6 -11z"/>
<path d="M4795 4290 c-3 -5 -1 -10 4 -10 6 0 11 5 11 10 0 6 -2 10 -4 10 -3 0
-8 -4 -11 -10z"/>
<path d="M4955 4291 c-3 -5 -1 -12 5 -16 5 -3 10 1 10 9 0 18 -6 21 -15 7z"/>
<path d="M2888 4253 c10 -4 10 -8 0 -21 -12 -14 -10 -14 10 -3 23 12 23 12 11
-11 -14 -26 -21 -54 -11 -43 4 4 7 12 7 18 0 7 14 11 33 11 l32 -2 -36 29
c-20 16 -42 29 -48 28 -6 0 -5 -3 2 -6z"/>
<path d="M4726 4245 c-19 -14 -19 -15 8 -15 19 0 29 -6 33 -20 5 -20 23 -28
23 -11 0 5 3 18 6 28 5 14 4 15 -4 4 -9 -13 -13 -12 -29 7 -16 19 -20 20 -37
7z"/>
<path d="M4710 4210 c0 -9 39 -25 46 -18 2 3 -7 10 -21 16 -14 6 -25 7 -25 2z"/>
<path d="M4675 4099 c-4 -6 -14 -8 -24 -4 -11 4 -13 3 -5 -5 12 -12 44 -4 44
11 0 12 -7 11 -15 -2z"/>
<path d="M4810 4096 c7 -7 13 -7 20 0 6 6 3 10 -10 10 -13 0 -16 -4 -10 -10z"/>
<path d="M4683 4059 c-2 -23 3 -25 10 -4 4 8 3 16 -1 19 -4 3 -9 -4 -9 -15z"/>
<path d="M4550 4024 c0 -10 5 -26 10 -34 8 -11 9 -7 4 15 -8 37 -14 45 -14 19z"/>
<path d="M4521 4014 c0 -11 3 -14 6 -6 3 7 2 16 -1 19 -3 4 -6 -2 -5 -13z"/>
<path d="M4614 3989 c-3 -6 -2 -15 3 -20 5 -5 9 -1 9 11 0 23 -2 24 -12 9z"/>
<path d="M4685 3950 l-40 -7 37 -2 c20 0 40 4 43 9 3 6 5 9 3 9 -2 -1 -21 -5
-43 -9z"/>
<path d="M3161 3924 c0 -11 3 -14 6 -6 3 7 2 16 -1 19 -3 4 -6 -2 -5 -13z"/>
<path d="M4725 3920 c-3 -6 1 -7 9 -4 18 7 21 14 7 14 -6 0 -13 -4 -16 -10z"/>
<path d="M4397 3899 c8 -8 22 -8 50 -1 l38 10 -49 1 c-37 1 -47 -2 -39 -10z"/>
<path d="M4590 3899 c0 -4 11 -6 24 -5 13 0 22 4 20 8 -6 9 -44 6 -44 -3z"/>
<path d="M4530 3871 c0 -6 4 -13 10 -16 6 -3 7 1 4 9 -7 18 -14 21 -14 7z"/>
<path d="M3486 3824 c-9 -24 -2 -26 12 -4 7 11 8 20 3 20 -5 0 -12 -7 -15 -16z"/>
<path d="M3525 3790 c-3 -6 1 -7 9 -4 18 7 21 14 7 14 -6 0 -13 -4 -16 -10z"/>
<path d="M3185 3710 c3 -5 8 -10 11 -10 2 0 4 5 4 10 0 6 -5 10 -11 10 -5 0
-7 -4 -4 -10z"/>
<path d="M3784 3580 c0 -13 4 -16 10 -10 7 7 7 13 0 20 -6 6 -10 3 -10 -10z"/>
<path d="M3902 3580 c0 -14 2 -19 5 -12 2 6 2 18 0 25 -3 6 -5 1 -5 -13z"/>
<path d="M3488 3563 c6 -2 18 -2 25 0 6 3 1 5 -13 5 -14 0 -19 -2 -12 -5z"/>
<path d="M3968 3543 c5 -21 7 -23 10 -9 2 10 0 22 -6 28 -6 6 -7 0 -4 -19z"/>
<path d="M3905 3550 c-22 -6 -24 -8 -9 -9 12 0 27 -8 34 -16 18 -21 27 -19 26
7 -1 25 -10 28 -51 18z m45 -10 c0 -5 -4 -10 -10 -10 -5 0 -10 5 -10 10 0 6 5
10 10 10 6 0 10 -4 10 -10z"/>
<path d="M4100 3550 c-9 -6 -10 -10 -3 -10 6 0 15 5 18 10 8 12 4 12 -15 0z"/>
<path d="M4058 3543 c7 -3 16 -2 19 1 4 3 -2 6 -13 5 -11 0 -14 -3 -6 -6z"/>
<path d="M3728 3513 c7 -3 16 -2 19 1 4 3 -2 6 -13 5 -11 0 -14 -3 -6 -6z"/>
<path d="M5320 4370 c0 -6 5 -10 11 -10 6 0 9 -10 7 -22 -2 -15 -9 -22 -20
-22 -10 1 -15 -3 -12 -8 3 -5 12 -7 20 -4 8 3 14 0 14 -6 0 -7 5 -6 13 3 6 8
11 12 10 10 -2 -2 2 -10 8 -17 6 -8 9 -20 6 -29 -4 -8 -1 -17 5 -21 7 -4 8 -3
4 4 -4 7 -3 12 3 12 6 0 8 6 5 14 -4 10 3 16 23 19 27 4 26 4 -5 6 -20 0 -31
5 -27 11 4 6 12 7 18 4 7 -4 0 6 -16 23 -15 16 -25 31 -23 34 3 3 -6 6 -19 7
-14 1 -25 -3 -25 -8z"/>
<path d="M5423 4267 c5 -15 37 -22 37 -9 0 5 -9 12 -21 15 -13 3 -19 1 -16 -6z"/>
<path d="M5400 4230 c-13 -8 -12 -10 3 -10 9 0 17 5 17 10 0 12 -1 12 -20 0z"/>
<path d="M5454 4189 c-3 -6 -1 -16 6 -22 10 -9 11 -9 5 2 -4 8 -2 17 6 22 9 6
10 9 2 9 -6 0 -15 -5 -19 -11z"/>
<path d="M5489 4169 c-15 -9 -6 -13 24 -9 10 1 25 -4 33 -10 8 -8 14 -8 14 -2
0 15 -55 32 -71 21z"/>
<path d="M5525 4115 c6 -37 5 -39 -9 -21 -9 12 -16 14 -16 7 0 -7 7 -19 15
-28 8 -8 12 -19 9 -24 -4 -7 7 -8 30 -4 31 6 35 5 30 -10 -5 -13 -9 -14 -15
-4 -4 8 -10 11 -13 9 -2 -3 2 -13 9 -23 13 -18 14 -17 20 3 4 14 12 19 23 16
9 -3 24 -1 32 4 12 8 8 10 -15 11 l-30 1 30 8 c21 6 12 7 -32 5 -35 -2 -63 1
-63 6 0 5 5 9 10 9 15 0 11 32 -6 55 -14 19 -15 17 -9 -20z"/>
<path d="M5560 4079 c0 -5 5 -7 10 -4 6 3 10 8 10 11 0 2 -4 4 -10 4 -5 0 -10
-5 -10 -11z"/>
<path d="M5660 4020 c0 -12 7 -20 18 -20 24 0 48 17 38 27 -5 4 -11 2 -13 -4
-5 -15 -33 -18 -33 -4 0 5 6 12 13 14 7 3 5 6 -5 6 -12 1 -18 -6 -18 -19z"/>
<path d="M5646 3982 c-2 -4 4 -8 14 -8 10 0 16 4 14 8 -3 4 -9 8 -14 8 -5 0
-11 -4 -14 -8z"/>
<path d="M6640 3870 c0 -11 4 -20 9 -20 13 0 32 26 24 33 -13 14 -33 6 -33
-13z"/>
<path d="M6591 3864 c0 -11 3 -14 6 -6 3 7 2 16 -1 19 -3 4 -6 -2 -5 -13z"/>
<path d="M6203 3858 c1 -8 -12 -14 -33 -16 -19 -2 -39 -8 -45 -14 -7 -7 -2 -8
15 -4 23 6 23 6 5 -5 -11 -6 -26 -19 -33 -27 -10 -14 -12 -11 -7 18 4 29 3 31
-4 10 l-9 -25 -2 25 c-2 21 -3 22 -7 5 -3 -11 -14 -26 -24 -33 -19 -13 -27
-38 -9 -27 6 3 10 1 10 -4 0 -6 -7 -11 -15 -11 -18 0 -20 -16 -3 -26 7 -4 8
-3 4 4 -6 11 6 17 27 13 4 -1 3 7 -3 18 -15 29 -12 39 5 17 11 -14 15 -16 15
-5 0 12 2 12 10 -1 6 -10 10 -11 10 -2 0 6 7 12 15 12 8 0 15 -6 15 -12 0 -10
3 -9 9 1 5 7 10 9 12 3 2 -6 13 -12 24 -14 11 -1 23 -7 28 -13 4 -6 11 -4 17
5 8 12 10 9 10 -14 0 -21 4 -27 16 -22 9 3 27 6 40 6 17 0 24 6 24 20 0 20 18
26 64 21 19 -1 19 -1 0 16 -23 22 -28 64 -7 56 12 -5 12 -7 1 -14 -10 -7 -11
-9 0 -9 7 0 10 -4 7 -10 -3 -5 -2 -10 4 -10 5 0 13 5 16 10 3 6 1 10 -5 10 -6
0 -9 4 -5 9 9 15 -32 32 -60 25 -15 -4 -32 -1 -40 6 -8 7 -26 10 -40 8 -14 -3
-28 -1 -31 3 -8 14 -24 11 -21 -3z m70 -25 c-7 -2 -21 -2 -30 0 -10 3 -4 5 12
5 17 0 24 -2 18 -5z m-47 -30 c-7 -7 -26 7 -26 19 0 6 6 6 15 -2 9 -7 13 -15
11 -17z m41 -27 c-6 -8 -15 -12 -19 -9 -4 2 -2 10 5 17 6 8 15 12 19 9 4 -2 2
-10 -5 -17z"/>
<path d="M5884 3828 c0 -14 5 -24 10 -21 5 4 15 -2 23 -12 7 -11 13 -14 13 -8
0 7 -5 15 -11 18 -6 4 -8 13 -5 21 3 7 0 16 -6 20 -7 4 -8 3 -4 -4 4 -7 3 -12
-3 -12 -5 0 -11 6 -14 13 -2 6 -4 0 -3 -15z"/>
<path d="M6679 3841 c10 -7 11 -13 1 -32 -11 -23 -11 -23 6 -4 11 14 18 16 21
7 5 -13 23 -7 23 9 0 6 -4 7 -10 4 -5 -3 -10 1 -10 9 0 10 -9 16 -22 16 -17 0
-19 -3 -9 -9z"/>
<path d="M6414 3801 c1 -41 7 -46 13 -10 2 11 -1 27 -5 35 -5 9 -8 0 -8 -25z"/>
<path d="M5650 3826 c0 -2 6 -9 14 -15 10 -9 15 -8 20 4 4 10 -1 15 -14 15
-11 0 -20 -2 -20 -4z"/>
<path d="M5940 3785 c0 -8 2 -15 4 -15 2 0 6 7 10 15 3 8 1 15 -4 15 -6 0 -10
-7 -10 -15z"/>
<path d="M5969 3784 c-9 -12 -10 -15 -1 -10 8 5 15 -2 22 -18 5 -14 12 -26 15
-26 11 0 0 35 -15 47 -19 15 -5 17 22 2 16 -9 19 -8 16 3 -7 20 -43 21 -59 2z"/>
<path d="M6488 3763 c6 -2 18 -2 25 0 6 3 1 5 -13 5 -14 0 -19 -2 -12 -5z"/>
<path d="M6568 3753 c6 -2 18 -2 25 0 6 3 1 5 -13 5 -14 0 -19 -2 -12 -5z"/>
<path d="M5860 3740 c-9 -6 -10 -10 -3 -10 6 0 15 5 18 10 8 12 4 12 -15 0z"/>
<path d="M6170 3740 c8 -5 20 -10 25 -10 6 0 3 5 -5 10 -8 5 -19 10 -25 10 -5
0 -3 -5 5 -10z"/>
<path d="M6155 3720 c-3 -5 -3 -15 1 -21 4 -8 9 -7 15 2 7 11 11 10 21 -4 13
-17 14 -17 14 2 0 11 -2 18 -4 16 -3 -2 -13 0 -23 5 -12 7 -20 7 -24 0z"/>
<path d="M6115 3710 c3 -5 8 -10 11 -10 2 0 4 5 4 10 0 6 -5 10 -11 10 -5 0
-7 -4 -4 -10z"/>
<path d="M6256 3701 c-19 -7 -19 -8 0 -13 13 -3 21 0 21 8 0 8 -1 14 -1 13 -1
0 -10 -4 -20 -8z"/>
<path d="M5895 3670 c-4 -6 3 -10 14 -10 25 0 27 6 6 13 -8 4 -17 2 -20 -3z"/>
<path d="M6938 3628 c9 -9 15 -9 24 0 9 9 7 12 -12 12 -19 0 -21 -3 -12 -12z"/>
<path d="M6025 3600 c3 -4 14 -10 25 -13 11 -3 18 -2 15 3 -3 4 -14 10 -25 13
-11 3 -18 2 -15 -3z"/>
<path d="M6110 3588 c0 -9 5 -20 11 -23 17 -11 20 0 4 21 -13 17 -14 17 -15 2z"/>
<path d="M6800 3579 c0 -5 5 -7 10 -4 6 3 10 8 10 11 0 2 -4 4 -10 4 -5 0 -10
-5 -10 -11z"/>
<path d="M6738 3553 c6 -2 18 -2 25 0 6 3 1 5 -13 5 -14 0 -19 -2 -12 -5z"/>
<path d="M6608 3543 c6 -2 18 -2 25 0 6 3 1 5 -13 5 -14 0 -19 -2 -12 -5z"/>
<path d="M6688 3543 c7 -3 16 -2 19 1 4 3 -2 6 -13 5 -11 0 -14 -3 -6 -6z"/>
<path d="M4400 2039 c132 -11 613 -19 570 -10 -31 8 -29 8 25 10 44 0 56 -2
45 -10 -10 -7 42 -9 171 -7 146 2 185 0 182 -9 -6 -16 50 -17 79 -2 11 6 18 7
15 2 -3 -4 16 -7 41 -6 140 5 392 5 413 -1 15 -5 19 -4 11 2 -8 5 7 9 43 10
31 1 55 -3 55 -9 0 -6 54 -9 150 -7 83 1 150 6 150 11 0 4 9 3 21 -4 12 -6 43
-9 69 -7 27 1 46 0 44 -4 -8 -12 17 -21 68 -24 42 -3 115 -34 80 -34 -7 0 -11
-4 -8 -9 4 -5 -4 -7 -16 -3 -20 5 -20 6 -3 12 17 6 17 7 1 13 -19 7 -36 -20
-19 -32 5 -3 12 -16 15 -28 4 -16 1 -24 -14 -28 -25 -9 -48 11 -43 37 3 11 1
18 -2 14 -13 -12 -11 -35 3 -47 8 -6 15 -26 15 -43 l2 -31 4 28 c4 23 9 28 24
24 10 -3 17 -1 13 4 -3 5 0 9 5 9 6 0 11 -5 11 -11 0 -5 4 -8 9 -5 5 3 14 -1
21 -9 9 -11 16 -12 25 -5 9 8 15 8 20 0 4 -7 12 -7 26 0 14 8 19 7 19 -1 0 -7
8 -5 20 6 12 10 19 24 16 30 -2 7 1 12 8 12 6 0 12 -9 12 -19 0 -10 -6 -18
-13 -18 -7 0 -17 -9 -23 -19 -14 -27 -13 -30 8 -26 10 1 16 9 14 21 -2 15 -1
16 7 5 6 -10 4 -22 -7 -40 -10 -14 -12 -22 -4 -18 7 5 12 3 12 -4 0 -11 -27
-9 -62 6 -13 5 -18 3 -18 -8 0 -9 -11 -17 -27 -20 -49 -7 119 4 212 14 115 12
243 47 263 70 9 10 18 16 22 14 3 -2 4 9 2 26 -3 20 0 29 9 29 19 1 -16 28
-59 46 -106 46 -552 90 -1012 99 -507 10 -1825 13 -1720 4z m1143 -16 c-7 -2
-19 -2 -25 0 -7 3 -2 5 12 5 14 0 19 -2 13 -5z m134 1 c-3 -3 -12 -4 -19 -1
-8 3 -5 6 6 6 11 1 17 -2 13 -5z m996 -124 c18 -21 18 -37 2 -56 -7 -8 -15 -7
-32 5 -22 16 -33 38 -12 25 6 -3 15 0 20 7 12 19 11 32 -1 24 -5 -3 -10 -1
-10 4 0 17 14 13 33 -9z m172 -30 c-3 -5 -12 -10 -18 -10 -7 0 -6 4 3 10 19
12 23 12 15 0z m2 -26 c-3 -3 -12 -4 -19 -1 -8 3 -5 6 6 6 11 1 17 -2 13 -5z
m20 -36 c-1 -14 3 -22 10 -21 7 2 10 -3 7 -11 -3 -8 -16 -13 -30 -12 -15 0
-22 6 -19 14 3 7 1 10 -4 7 -5 -3 -13 0 -17 6 -4 8 -3 9 4 5 6 -4 19 2 29 13
23 25 23 25 20 -1z m-49 -53 c-3 -3 -9 2 -12 12 -6 14 -5 15 5 6 7 -7 10 -15
7 -18z"/>
<path d="M6663 1869 c-2 -23 3 -25 10 -4 4 8 3 16 -1 19 -4 3 -9 -4 -9 -15z"/>
<path d="M3640 2029 c-114 -10 -261 -36 -220 -39 14 -1 30 -1 35 0 6 2 23 2
38 1 16 -1 26 3 23 8 -4 5 17 9 49 8 30 -1 55 1 55 4 0 3 41 9 92 13 68 4 94
3 101 -6 7 -10 10 -10 14 0 3 9 42 12 143 12 101 0 140 -3 143 -12 4 -10 6
-10 6 0 1 8 17 12 47 12 32 0 43 -3 38 -12 -5 -8 -2 -9 10 -5 10 4 20 7 22 7
2 0 4 5 4 10 0 12 -447 11 -600 -1z"/>
<path d="M5258 2003 c12 -2 30 -2 40 0 9 3 -1 5 -23 4 -22 0 -30 -2 -17 -4z"/>
<path d="M6008 2003 c7 -3 16 -2 19 1 4 3 -2 6 -13 5 -11 0 -14 -3 -6 -6z"/>
<path d="M3330 1986 c0 -10 28 -13 41 -5 10 6 7 9 -13 9 -16 0 -28 -2 -28 -4z"/>
<path d="M3227 1964 c-26 -8 -45 -19 -42 -23 3 -5 -3 -7 -12 -5 -10 3 -33 -8
-53 -25 -29 -25 -33 -32 -24 -48 19 -30 67 -52 160 -73 108 -23 401 -63 417
-56 7 2 -2 5 -19 5 -17 1 -33 4 -37 7 -3 3 -25 7 -49 9 -104 6 -170 17 -157
26 9 6 -5 7 -36 4 -42 -4 -45 -3 -20 5 28 9 27 9 -10 5 -44 -5 -72 6 -61 24 6
10 -13 16 -36 12 -5 0 -8 4 -8 9 0 6 5 10 10 10 6 0 10 5 10 10 0 6 -9 10 -20
10 -14 0 -20 7 -20 21 0 11 -4 28 -10 38 -8 16 -2 20 53 34 34 8 51 15 37 15
-14 1 -47 -6 -73 -14z"/>
<path d="M6020 1880 c0 -5 5 -10 11 -10 5 0 7 5 4 10 -3 6 -8 10 -11 10 -2 0
-4 -4 -4 -10z"/>
<path d="M6460 1870 c0 -5 5 -10 11 -10 5 0 7 5 4 10 -3 6 -8 10 -11 10 -2 0
-4 -4 -4 -10z"/>
<path d="M3285 1850 c4 -6 11 -8 16 -5 14 9 11 15 -7 15 -8 0 -12 -5 -9 -10z"/>
<path d="M6529 1847 c6 -8 7 -18 3 -22 -4 -5 -1 -5 6 -1 10 6 10 11 1 22 -6 8
-14 14 -16 14 -3 0 0 -6 6 -13z"/>
<path d="M3576 1813 c-6 -14 -5 -15 5 -6 7 7 10 15 7 18 -3 3 -9 -2 -12 -12z"/>
<path d="M6590 1813 c0 -18 5 -21 25 -17 20 4 25 0 26 -18 1 -22 1 -22 8 2 10
32 6 39 -20 33 -12 -4 -25 0 -30 8 -7 11 -9 9 -9 -8z"/>
<path d="M6679 1809 c-16 -9 15 -19 40 -12 12 3 21 8 21 12 0 9 -47 9 -61 0z"/>
<path d="M3530 1780 c0 -5 5 -10 10 -10 6 0 10 5 10 10 0 6 -4 10 -10 10 -5 0
-10 -4 -10 -10z"/>
<path d="M6730 1780 c0 -5 5 -10 11 -10 5 0 7 5 4 10 -3 6 -8 10 -11 10 -2 0
-4 -4 -4 -10z"/>
<path d="M6670 1760 c-9 -6 -10 -10 -3 -10 6 0 15 5 18 10 8 12 4 12 -15 0z"/>
<path d="M3738 1723 c12 -2 32 -2 45 0 12 2 2 4 -23 4 -25 0 -35 -2 -22 -4z"/>
<path d="M6350 1714 l-175 -12 160 5 c162 5 347 21 240 20 -27 0 -129 -6 -225
-13z"/>
<path d="M3893 1713 c31 -2 83 -2 115 0 31 2 5 3 -58 3 -63 0 -89 -1 -57 -3z"/>
<path d="M5635 1708 c-34 -9 -111 -10 -625 -10 l-435 -1 270 -10 c299 -10
1100 0 1050 14 -16 5 -45 6 -62 3 -21 -4 -33 -2 -33 5 0 12 -119 12 -165 -1z"/>
<path d="M4118 1703 c23 -2 61 -2 85 0 23 2 4 4 -43 4 -47 0 -66 -2 -42 -4z"/>
<path d="M5958 1703 c12 -2 32 -2 45 0 12 2 2 4 -23 4 -25 0 -35 -2 -22 -4z"/>
<path d="M4427 1693 c18 -2 50 -2 70 0 21 2 7 4 -32 4 -38 0 -55 -2 -38 -4z"/>
</g>
</svg>
